<svg xmlns="http://www.w3.org/2000/svg" viewBox="0 0 960 1200" role="img" aria-labelledby="title desc">
  <title id="title">Tailored Overshirt Jacket back view</title>
  <desc id="desc">Stylized placeholder fashion product image with a charcoal jacket on a minimal studio background.</desc>
  <defs>
    <linearGradient id="bg2" x1="0" y1="0" x2="1" y2="1">
      <stop offset="0%" stop-color="#f7f7f7"/>
      <stop offset="100%" stop-color="#edf1f4"/>
    </linearGradient>
    <linearGradient id="coat2" x1="0" y1="0" x2="0" y2="1">
      <stop offset="0%" stop-color="#4b5563"/>
      <stop offset="100%" stop-color="#1f2937"/>
    </linearGradient>
    <filter id="shadow2" x="-20%" y="-20%" width="140%" height="140%">
      <feDropShadow dx="0" dy="18" stdDeviation="20" flood-color="#111111" flood-opacity="0.18"/>
    </filter>
  </defs>
  <rect width="960" height="1200" rx="48" fill="url(#bg2)"/>
  <ellipse cx="470" cy="1020" rx="215" ry="42" fill="#9ca3af" opacity="0.14"/>
  <g filter="url(#shadow2)">
    <path d="M330 240c21-33 48-56 80-68h140c32 12 59 35 80 68l68 110-72 45-35-66v514H366V329l-35 66-72-45z" fill="url(#coat2)"/>
    <path d="M366 246c34-28 74-42 114-42s80 14 114 42l-46 56H412z" fill="#5b6574"/>
    <rect x="392" y="364" width="176" height="14" rx="7" fill="#707989"/>
    <rect x="392" y="446" width="176" height="14" rx="7" fill="#707989"/>
    <rect x="392" y="528" width="176" height="14" rx="7" fill="#707989"/>
    <rect x="392" y="610" width="176" height="14" rx="7" fill="#707989"/>
    <rect x="390" y="712" width="90" height="96" rx="26" fill="#2c3440"/>
    <rect x="480" y="712" width="90" height="96" rx="26" fill="#2c3440"/>
    <path d="M318 349l-68 110 35 18 95-97-19-31z" fill="#303744"/>
    <path d="M642 349l68 110-35 18-95-97 19-31z" fill="#303744"/>
    <circle cx="480" cy="280" r="18" fill="#cbd5e1"/>
    <path d="M480 298v75" stroke="#d1d5db" stroke-width="6" stroke-linecap="round"/>
  </g>
  <text x="480" y="104" text-anchor="middle" font-family="Inter, Arial, sans-serif" font-size="30" font-weight="700" fill="#333">Back View</text>
  <text x="480" y="1118" text-anchor="middle" font-family="Inter, Arial, sans-serif" font-size="24" font-weight="600" fill="#6b7280">Tailored Overshirt Jacket</text>
</svg>
